<svg width="23" height="23" viewBox="0 0 23 23" fill="none" xmlns="http://www.w3.org/2000/svg">
<path id="Vector" d="M13.5341 11.5002L22.5786 2.4554C23.1405 1.89393 23.1405 0.982926 22.5786 0.42146C22.0166 -0.140487 21.1066 -0.140487 20.5447 0.42146L11.5002 9.4663L2.4553 0.42146C1.89337 -0.140487 0.983365 -0.140487 0.421442 0.42146C-0.140481 0.982926 -0.140481 1.89393 0.421442 2.4554L9.46639 11.5002L0.421442 20.5451C-0.140481 21.1065 -0.140481 22.0176 0.421442 22.579C0.702404 22.8595 1.07063 23 1.43837 23C1.80611 23 2.17433 22.8595 2.4553 22.5785L11.5002 13.5337L20.5447 22.5785C20.8257 22.8595 21.1939 23 21.5616 23C21.9294 23 22.2976 22.8595 22.5786 22.5785C23.1405 22.0171 23.1405 21.1061 22.5786 20.5446L13.5341 11.5002Z" fill="white"/>
</svg>
