<svg width="1366" height="58" viewBox="0 0 1366 58" fill="none" xmlns="http://www.w3.org/2000/svg">
<path fill-rule="evenodd" clip-rule="evenodd" d="M0 58V51.6641L3.8147e-06 22.5146C1.78989 22.8723 3.55811 23.2763 5.32433 23.6799L5.32944 23.6811L5.33127 23.6815C9.39898 24.611 13.4562 25.5381 17.7433 25.8911C21.0554 26.2287 23.6579 26.904 26.2602 28.2546C30.7552 30.6181 35.4868 32.1375 41.6378 30.9558C43.8382 30.5226 45.9412 29.9679 48.0406 29.4141L48.0411 29.414C52.4873 28.2412 56.9171 27.0728 62.2201 27.0728C70.5262 27.0728 79.2584 25.5527 87.6082 24.0991L87.9328 24.0426C88.2736 23.9833 88.6138 23.9241 88.9533 23.8652C93.6849 23.0211 97.7067 23.6964 101.965 25.3846C108.353 27.9169 114.977 27.9169 122.311 26.904C124.317 26.6247 126.334 26.2585 128.358 25.891L128.362 25.8903L128.363 25.8901C136.125 24.481 144.003 23.0508 151.883 26.3975C153.539 27.0728 156.141 27.0728 158.034 26.5664C161.921 25.6017 165.807 25.4983 169.694 25.3949C171.249 25.3536 172.803 25.3123 174.358 25.2158C176.295 25.0901 178.232 24.9229 180.173 24.7553L180.174 24.7552C186.055 24.2476 191.968 23.737 198.016 24.3717C200.145 24.5405 203.93 24.034 204.64 23.0211C208.898 17.4499 215.759 16.6058 223.566 16.0994C223.85 16.0825 224.132 16.0639 224.412 16.0454C226.922 15.8798 229.221 15.7282 231.136 16.9435C232.793 17.9564 234.685 18.2941 236.814 18.2941C239.535 18.3785 242.256 18.5473 244.976 18.7161L244.985 18.7167C247.703 18.8853 250.421 19.0539 253.138 19.1382C257.633 19.307 261.655 18.4629 264.731 15.7617C266.15 14.4111 268.043 14.0735 270.172 13.7358C275.14 13.0606 279.872 13.9047 284.13 15.7617C287.205 16.9435 289.808 16.9435 293.12 16.7747C297.023 16.437 300.986 16.226 304.949 16.015L304.963 16.0143C308.92 15.8034 312.879 15.5925 316.778 15.2553C319.618 14.9909 322.392 15.3703 325.137 15.7455L325.138 15.7457L325.139 15.7458C327.653 16.0895 330.14 16.4296 332.628 16.2682C341.855 15.5929 350.845 15.5929 359.835 17.45C362.567 17.9817 365.444 18.2033 368.334 18.4259L368.334 18.4259C373.702 18.8393 379.116 19.2562 383.729 21.6705C384.21 21.8995 384.801 21.8179 385.352 21.7417L385.353 21.7416C385.615 21.7054 385.867 21.6705 386.095 21.6705L386.096 21.6704C389.645 21.3328 393.192 20.9954 396.741 22.177C398.397 22.8523 400.526 22.3458 401.472 21.3329C404.548 18.1252 408.097 18.8005 411.882 20.4888C412.828 20.939 413.775 20.939 414.791 20.939C415.299 20.939 415.825 20.939 416.377 20.9952C419.921 21.1076 423.492 20.9955 427.071 20.8831L427.072 20.8831C434.244 20.6579 441.45 20.4316 448.552 22.0082C451.706 22.7316 454.967 22.6896 458.233 22.6475C461.827 22.6012 465.427 22.5548 468.897 23.5276C469.594 23.7264 470.372 23.5742 471.184 23.4153L471.184 23.4152C471.751 23.3042 472.335 23.1899 472.919 23.1899C474.834 23.0191 476.265 22.1569 477.609 21.3466C478.922 20.5553 480.153 19.8135 481.672 19.8135C492.318 19.4758 502.728 18.9694 512.191 15.0864C513.137 14.7488 514.557 14.7488 515.74 14.9176C520.927 15.806 525.932 14.8765 530.914 13.9511L530.941 13.946C531.631 13.8179 532.32 13.69 533.01 13.567C533.92 13.4372 534.83 13.2993 535.739 13.1615C540.744 12.4033 545.749 11.6451 550.753 12.2165C551.906 12.3707 552.971 12.6033 554.022 12.833L554.033 12.8354C556.428 13.3592 558.751 13.8671 561.872 13.3982C563.845 13.0462 565.832 12.7213 567.819 12.3962L567.827 12.3949L567.828 12.3948C574.413 11.3177 581.009 10.239 587.186 8.16472C590.735 6.98296 594.047 6.64531 597.595 6.81413C599.015 6.81413 600.198 6.81413 601.617 6.64531C603.911 6.36471 606.204 5.96751 608.508 5.56857L608.509 5.56843L608.51 5.56832C614.522 4.52717 620.603 3.47425 626.931 4.45061C628.192 4.67558 629.243 4.30096 630.294 3.92601L630.296 3.92538L630.303 3.923C630.826 3.73621 631.349 3.54975 631.899 3.43768C632.503 3.30061 633.11 3.15672 633.72 3.01208C638.369 1.90971 643.204 0.763511 648.223 2.25592C652.008 3.26886 655.557 3.6065 659.579 3.77532C674.483 4.11297 688.441 7.32061 701.926 11.5412C705.475 12.5541 708.314 12.5541 711.626 11.8788C713.318 11.5433 714.936 11.0745 716.538 10.6102L716.541 10.6094C718.97 9.90561 721.363 9.21221 723.928 9.00884C730.552 8.50237 737.176 9.17766 743.564 10.8659C743.679 10.9012 743.798 10.9381 743.92 10.976C745.545 11.481 747.685 12.1459 749.005 11.2035C753.59 8.39918 757.772 9.62058 762.109 10.8872C762.471 10.9931 762.835 11.0993 763.2 11.2035C768.878 13.0606 774.082 12.0477 778.577 8.6712C780.234 7.32061 782.363 6.64532 784.965 6.64532C793.009 6.30767 800.816 5.12592 807.677 1.91828C808.11 1.74664 808.552 1.54009 809.009 1.32704L809.013 1.32513C810.8 0.490882 812.799 -0.441902 815.247 0.230057C818.623 1.10607 822.22 1.38232 825.828 1.65939L825.829 1.65948C830.564 2.02314 835.318 2.38834 839.615 4.11298C844.109 5.97003 847.895 6.13886 853.336 4.28181C861.853 1.243 871.079 2.25594 879.833 5.63239C880.605 5.94735 881.372 6.28679 882.141 6.62724L882.142 6.62748C886.318 8.4768 890.562 10.3558 896.157 8.50238C896.348 8.36606 896.847 8.55995 897.281 8.72855L897.295 8.73378C897.394 8.77211 897.489 8.80893 897.576 8.84003C899.735 9.97518 902.222 10.7209 904.72 11.47L904.728 11.4724L904.729 11.4727C907.431 12.2824 910.147 13.0965 912.48 14.4112C921.944 19.9823 932.826 21.8394 944.892 18.9694C945.531 18.8554 946.278 18.8954 946.987 18.9334L946.992 18.9337C947.331 18.9518 947.661 18.9694 947.967 18.9694C951.221 19.346 954.573 19.4192 957.938 19.4927L957.939 19.4927L957.94 19.4927C963.627 19.617 969.35 19.7421 974.7 21.3329C975.174 21.5017 976.12 21.3329 976.593 21.1641C978.391 20.0234 980.358 20.2074 982.352 20.3939C982.718 20.4282 983.086 20.4626 983.454 20.4888C985.817 20.5731 988.12 20.6995 990.424 20.8259L990.433 20.8264C992.74 20.9531 995.046 21.0797 997.412 21.1641C1002.55 21.4004 1006.87 19.8996 1011.19 18.3988L1011.19 18.3983C1013.04 17.7553 1014.89 17.1123 1016.81 16.6059C1016.97 16.5647 1017.13 16.5231 1017.3 16.4813C1017.41 16.4518 1017.52 16.4221 1017.64 16.3925L1017.66 16.3884C1020.69 15.6032 1023.72 14.8205 1026.75 15.5929C1035.74 17.6188 1044.49 19.8135 1053.24 22.5147C1055.06 23.0821 1056.93 23.1825 1058.81 23.283C1060.84 23.3918 1062.87 23.5008 1064.84 24.2029C1075.01 27.917 1086.13 28.9299 1097.72 28.0858C1098.57 28.0253 1099.42 27.9577 1100.27 27.8894L1100.43 27.8767C1106.67 27.3768 1113.05 26.8661 1119.25 28.9299C1122.32 29.9429 1126.35 30.787 1129.9 30.4494L1130.72 30.3625C1138.47 29.5481 1146.02 28.7553 1153.79 28.5923C1155.84 28.5401 1157.89 28.2778 1159.94 28.0155L1159.94 28.015C1164.51 27.4294 1169.09 26.8438 1173.66 28.5923C1176.97 29.7741 1180.05 28.5923 1182.89 27.4106C1191.41 24.2029 1199.92 21.5018 1210.1 22.177C1214.33 22.3361 1218.15 23.0949 1222.14 23.8883L1222.87 24.0341C1225.71 24.5406 1228.78 24.8782 1230.2 22.6835C1232.1 19.8135 1235.17 19.6447 1238.48 19.6447C1239.82 19.6447 1241.16 19.6633 1242.49 19.6819L1242.51 19.6822L1242.52 19.6823C1245.19 19.7197 1247.87 19.7572 1250.55 19.6447C1257.17 19.1382 1263.33 19.1382 1269.71 20.8265C1270.62 21.0852 1271.53 21.3688 1272.44 21.6534C1276.27 22.8542 1280.17 24.0735 1284.38 23.5276C1287.69 23.19 1291 23.5276 1294.08 24.2029C1300.94 25.5535 1308.51 26.3976 1314.66 24.5406C1322.71 21.9225 1331.17 20.926 1339.55 19.9391L1339.57 19.9361C1345.24 19.2695 1350.87 18.6065 1356.3 17.45C1359.61 16.7747 1362.92 17.1124 1366 17.45V51.6641V58H0Z" fill="#2F4858"/>
</svg>
